<svg version="1.1" id="Layer_1" xmlns="http://www.w3.org/2000/svg" xmlns:xlink="http://www.w3.org/1999/xlink" x="0px" y="0px"
	 width="100%" viewBox="0 0 496 496" enable-background="new 0 0 496 496" xml:space="preserve">
<path fill="#000000" opacity="1.000000" stroke="none" 
	d="
M234.999207,172.987747 
	C243.994141,172.889694 252.556122,172.536652 260.919464,174.070465 
	C290.681915,179.528854 295.705841,209.300995 284.667816,229.670761 
	C279.029510,240.075806 273.193329,244.027588 259.024139,247.986206 
	C259.329590,248.584213 259.501160,249.227097 259.900879,249.658676 
	C281.291931,272.754333 301.561676,296.906311 324.503021,318.540802 
	C331.050323,324.715149 337.894623,330.570068 346.077820,334.592163 
	C352.740173,337.866730 359.651642,340.033844 367.191589,339.715576 
	C368.472748,339.661499 369.877716,339.415649 371.069031,340.515839 
	C371.015594,343.129517 368.845093,342.960632 367.187408,343.285889 
	C348.240082,347.003815 331.751587,341.739014 316.835663,329.918549 
	C306.037292,321.361176 297.271790,310.889862 288.121552,300.763458 
	C273.935791,285.064514 259.799530,269.320557 245.695450,253.548126 
	C241.941589,249.350220 237.985596,245.406128 233.035080,242.653152 
	C234.401489,239.894470 236.469543,240.862457 238.122543,240.684814 
	C242.753220,240.187195 247.476990,240.205292 252.019089,239.296005 
	C269.295959,235.837311 275.262970,223.505127 274.457611,207.792236 
	C274.280701,204.341049 273.494751,200.849915 272.497253,197.524765 
	C268.968353,185.761078 261.565277,180.357574 249.287140,180.302902 
	C243.455521,180.276932 237.621475,180.394165 231.792847,180.259720 
	C228.677872,180.187836 227.299698,181.188156 227.307114,184.543411 
	C227.387726,221.033218 227.312057,257.523376 227.406616,294.013092 
	C227.423431,300.496674 231.268585,304.767456 237.618042,306.447937 
	C238.949112,306.800232 240.720901,306.204376 242.044571,309.116089 
	C227.593079,309.124817 213.689407,310.245819 199.062363,309.048767 
	C200.592819,306.027649 202.761032,306.717773 204.316696,306.254852 
	C210.345551,304.460785 213.742767,300.601929 213.754730,294.344482 
	C213.822220,259.021240 213.814133,223.697617 213.726013,188.374405 
	C213.708954,181.541061 209.757599,177.412201 202.839294,176.310822 
	C201.733597,176.134796 200.447510,176.441895 199.623978,174.777069 
	C200.497314,172.469757 202.738037,173.050125 204.508850,173.036423 
	C214.505234,172.959061 224.502457,172.992340 234.999207,172.987747 
z"/>
<path fill="#000000" opacity="1.000000" stroke="none" 
	d="
M93.741165,376.946106 
	C87.959785,361.049835 91.483459,346.718109 100.244591,333.597412 
	C105.574654,325.615143 114.114273,323.317688 121.056389,326.501343 
	C128.166443,329.761993 132.107697,338.099091 130.589569,347.102661 
	C128.530533,359.314178 123.954124,370.470642 115.359993,379.544220 
	C107.370056,387.979950 100.290283,387.074066 93.741165,376.946106 
M103.858124,360.675049 
	C103.248940,359.939972 102.639755,359.204895 101.779877,358.167328 
	C99.954079,363.939667 100.615585,369.277740 102.504211,374.430603 
	C104.843353,380.812683 109.246391,381.444000 113.525482,376.080139 
	C120.277664,367.616333 124.297409,357.881042 126.827148,347.403656 
	C127.733948,343.647980 127.279205,340.093689 126.313744,336.619690 
	C124.088722,328.613403 117.229118,326.865326 111.660950,333.024658 
	C105.323792,340.034637 101.714981,347.970398 105.532326,357.657166 
	C106.041199,358.948517 107.528961,360.875427 103.858124,360.675049 
z"/>
<path fill="#000000" opacity="1.000000" stroke="none" 
	d="
M131.538483,376.008240 
	C130.023087,370.294067 130.517746,365.019562 131.808716,359.801941 
	C132.442062,357.242096 133.857346,354.765442 136.861069,355.319122 
	C140.240158,355.941986 140.270782,358.905273 139.902512,361.702606 
	C139.686630,363.342194 139.430954,364.976532 139.729431,366.760712 
	C140.716080,363.143311 141.639999,359.507324 142.705231,355.913208 
	C144.041794,351.403534 146.690048,347.927704 150.965378,345.752716 
	C152.839676,344.799225 154.771912,344.122803 156.630951,345.347809 
	C158.625793,346.662262 159.173004,348.892029 158.809814,351.102386 
	C157.948151,356.346466 156.930099,361.567657 155.852417,366.772614 
	C154.928284,371.235962 155.285629,375.719116 155.393906,380.201599 
	C155.430969,381.736725 155.853378,383.156311 157.370773,383.955048 
	C161.303864,383.187622 161.706100,377.015381 166.704758,377.653412 
	C166.289398,383.281311 158.686752,390.043732 153.837128,389.200500 
	C149.365356,388.422974 148.215836,384.854034 147.788345,381.080597 
	C147.139969,375.357513 148.490051,369.845764 150.039215,364.380554 
	C151.163681,360.413635 152.606430,356.462738 151.346603,352.002075 
	C148.484314,351.857056 147.769241,354.167236 146.793396,355.908813 
	C143.415848,361.936768 142.090424,368.666351 140.423050,375.272034 
	C140.342285,375.592010 140.360107,375.935577 140.301605,376.262726 
	C139.849335,378.792572 139.229950,381.675232 136.295410,381.898895 
	C132.892426,382.158264 132.322479,379.012268 131.538483,376.008240 
z"/>
<path fill="#000000" opacity="1.000000" stroke="none" 
	d="
M254.721008,383.641907 
	C253.182297,384.954163 251.979538,386.152435 250.557526,386.968781 
	C245.966858,389.604279 242.486618,388.277191 240.935577,383.166168 
	C239.111282,377.154755 239.508926,370.991119 240.201401,364.845215 
	C240.674850,360.643188 241.145569,356.440857 241.699356,351.509735 
	C238.522797,352.943573 237.777634,355.148499 237.072968,357.273499 
	C235.033096,363.424988 233.233490,369.659973 231.048904,375.758026 
	C230.016479,378.639954 228.833481,382.629303 224.977936,381.880829 
	C221.504959,381.206635 221.856827,377.242950 221.701462,374.315979 
	C221.426697,369.139801 221.896988,364.011688 223.315018,359.006500 
	C224.051788,356.405945 225.430496,354.186951 228.517990,354.760040 
	C231.594971,355.331177 231.494080,358.106628 231.246017,360.388275 
	C230.870392,363.843536 230.091751,367.255005 230.036499,370.883972 
	C231.447632,366.371307 232.859634,361.858887 234.269638,357.345856 
	C235.316986,353.993561 236.617752,350.740417 238.762451,347.936951 
	C240.250732,345.991516 242.204346,344.717224 244.826080,345.524017 
	C247.494125,346.345032 248.133759,348.525421 248.305664,350.994507 
	C248.679871,356.369385 247.360840,361.563110 246.698563,366.831146 
	C246.016754,372.254486 245.828262,377.646362 249.227646,382.357605 
	C252.957977,381.844238 252.724960,377.080780 256.534882,376.815704 
	C258.158081,379.513641 256.080933,381.340424 254.721008,383.641907 
z"/>
<path fill="#000000" opacity="1.000000" stroke="none" 
	d="
M171.369690,376.362671 
	C170.038925,373.379944 171.636780,368.557770 164.064117,370.162811 
	C173.602310,362.773865 171.667221,352.505890 175.533295,344.409119 
	C178.064514,339.107849 180.552002,333.877960 184.806122,329.766418 
	C187.620514,327.046295 190.958450,325.480103 194.672089,328.090698 
	C198.307877,330.646606 198.258057,334.250763 196.690170,337.918823 
	C193.427399,345.552063 188.285416,351.826874 182.248947,357.428406 
	C176.814423,362.471344 175.922119,367.486420 179.262680,374.001953 
	C181.356461,378.085754 183.231339,378.255737 186.072586,374.609619 
	C187.251404,373.096863 188.086716,370.936523 190.710541,372.170685 
	C190.112381,377.024292 183.259109,383.892883 178.804749,383.792969 
	C174.379227,383.693695 172.672531,380.395355 171.369690,376.362671 
M183.148254,341.650482 
	C180.923416,346.099487 178.981979,350.627411 178.354614,357.036407 
	C186.074829,350.320557 191.128342,343.552399 194.216583,335.345123 
	C194.855499,333.647186 194.863403,331.998535 193.079849,331.010162 
	C191.427994,330.094849 190.240158,331.322662 189.172501,332.315399 
	C186.575043,334.730591 185.183990,337.968781 183.148254,341.650482 
z"/>
<path fill="#000000" opacity="1.000000" stroke="none" 
	d="
M283.919922,355.526917 
	C280.522675,360.228424 276.043488,362.002228 270.807892,362.296631 
	C265.349945,362.603516 264.634430,363.620453 266.213287,368.688293 
	C268.868774,377.211884 274.123688,378.542145 280.433746,372.406281 
	C282.406860,370.487640 283.511047,367.686157 286.006348,366.489166 
	C287.289612,366.939423 287.515503,367.821869 287.310974,368.611328 
	C285.764282,374.581604 275.333954,382.346069 269.190186,382.370148 
	C263.943939,382.390717 260.629700,379.793518 259.154297,375.014038 
	C256.165802,365.333008 258.677277,356.511322 264.548401,348.742188 
	C267.589417,344.718109 272.283051,343.083466 277.484589,343.773743 
	C282.983643,344.503479 287.578613,349.310242 283.919922,355.526917 
M277.374542,347.316284 
	C270.776611,348.242432 267.121246,352.660980 267.466644,359.789459 
	C272.126984,359.192993 276.570465,358.315613 279.935669,354.719330 
	C282.893433,351.558411 282.305328,349.359100 277.374542,347.316284 
z"/>
<path fill="#000000" opacity="1.000000" stroke="none" 
	d="
M218.367981,318.432922 
	C212.963577,316.470215 207.832123,317.044281 202.719177,317.685669 
	C201.231018,317.872314 199.785614,318.278717 198.311035,317.711212 
	C197.199554,317.283417 196.085693,316.778137 196.004196,315.405029 
	C195.921021,314.003265 196.948334,313.313080 198.095825,312.963196 
	C211.918640,308.748749 227.769073,311.506195 235.709427,325.153809 
	C237.644806,328.480255 239.043396,332.054352 239.886780,335.776306 
	C240.487061,338.425323 241.121658,341.284149 238.962433,343.886993 
	C235.513962,343.005829 235.625336,339.876404 234.870483,337.594879 
	C232.038910,329.036682 227.628616,321.935364 218.367981,318.432922 
z"/>
<path fill="#000000" opacity="1.000000" stroke="none" 
	d="
M206.440018,382.559448 
	C201.524109,383.373505 199.483673,380.632660 198.948990,376.834351 
	C197.974640,369.912811 199.378357,363.244751 202.384308,356.972961 
	C203.745743,354.132385 206.228653,352.486847 209.332047,353.781311 
	C212.356232,355.042725 211.530090,358.020935 210.932785,360.350037 
	C210.069702,363.715485 208.664886,366.938019 207.658340,370.272003 
	C206.990173,372.485107 207.273849,374.776031 209.320450,376.098236 
	C211.523697,377.521667 212.960449,375.642426 214.420486,374.280640 
	C215.692886,373.093872 216.754501,371.336365 219.713791,372.530121 
	C216.875320,378.036591 212.252304,380.740479 206.440018,382.559448 
z"/>
<path fill="#000000" opacity="1.000000" stroke="none" 
	d="
M210.011078,324.348389 
	C207.121246,324.182068 204.744675,325.765045 202.231293,324.764343 
	C201.012573,324.279083 199.587830,323.954681 199.618958,322.217316 
	C199.644180,320.809296 200.736374,320.311981 201.810669,319.809692 
	C214.523727,313.865356 232.786362,325.167084 233.030777,339.158844 
	C233.059875,340.824799 232.982773,342.789062 230.895172,343.101349 
	C228.999878,343.384857 228.580154,341.486176 228.065277,340.152832 
	C226.378235,335.784058 224.495575,331.567749 220.820450,328.428711 
	C217.819366,325.865417 214.482162,324.206451 210.011078,324.348389 
z"/>
<path fill="#000000" opacity="1.000000" stroke="none" 
	d="
M216.012604,328.598816 
	C224.679001,333.444000 227.826172,339.763519 224.753632,345.770386 
	C221.792999,345.561768 221.248062,342.907745 220.507034,340.958496 
	C217.941788,334.210754 213.193924,331.422150 206.146164,332.180023 
	C205.325684,332.268219 204.486694,332.237579 203.659470,332.196930 
	C202.441681,332.137115 201.257385,331.829773 200.967499,330.463593 
	C200.625107,328.850037 201.651794,328.064240 203.040161,327.573914 
	C207.374725,326.043182 211.534500,326.872192 216.012604,328.598816 
z"/>
<path fill="#000000" opacity="1.000000" stroke="none" 
	d="
M209.853394,347.724915 
	C207.119247,347.575989 205.802582,346.206665 205.919968,343.896393 
	C206.035843,341.616119 207.121445,339.723083 209.494537,339.050568 
	C211.214432,338.563141 212.506332,339.487518 212.980713,341.045471 
	C213.848114,343.894135 213.203079,346.291321 209.853394,347.724915 
z"/>
</svg>